<?xml version="1.0" encoding="UTF-8"?>
<svg width="103px" height="26px" viewBox="0 0 103 26" version="1.1" xmlns="http://www.w3.org/2000/svg" xmlns:xlink="http://www.w3.org/1999/xlink">
    <!-- Generator: Sketch 52.5 (67469) - http://www.bohemiancoding.com/sketch -->
    <title>logo</title>
    <desc>Created with Sketch.</desc>
    <defs>
        <path d="M26.368,6.5 L29.914,6.5 L29.914,11.306 L34.198,11.306 L34.198,6.5 L37.744,6.5 L37.744,20 L34.198,20 L34.198,14.852 L29.914,14.852 L29.914,20 L26.368,20 L26.368,6.5 Z M41.308,20 L37.762,20 L44.062,6.5 L45.664,6.5 L52.018,20 L48.472,20 L47.644,18.236 L42.118,18.236 L41.308,20 Z M44.89,12.278 L43.504,15.248 L46.258,15.248 L44.89,12.278 Z M60.28,6.5 L64.6,6.5 L60.1,12.962 L65.05,20 L60.73,20 L57.94,16.04 L55.132,20 L50.812,20 L55.762,12.962 L51.262,6.5 L55.582,6.5 L57.94,9.866 L60.28,6.5 Z M75.418,8.462 L72.934,10.964 C72.376,10.406 71.584,10.082 70.666,10.082 C68.83,10.082 67.498,11.414 67.498,13.25 C67.498,15.086 68.83,16.418 70.666,16.418 C71.584,16.418 72.376,16.094 72.934,15.518 L75.454,18.002 C74.23,19.226 72.538,20 70.666,20 C66.94,20 63.916,16.976 63.916,13.25 C63.916,9.524 66.94,6.5 70.666,6.5 C72.52,6.5 74.194,7.238 75.418,8.462 Z M79,20 L75.454,20 L81.754,6.5 L83.356,6.5 L89.71,20 L86.164,20 L85.336,18.236 L79.81,18.236 L79,20 Z M82.582,12.278 L81.196,15.248 L83.95,15.248 L82.582,12.278 Z M101.086,20 L99.628,20 L93.256,13.61 L93.256,20 L89.71,20 L89.71,6.5 L91.15,6.5 L97.54,12.872 L97.54,6.5 L101.086,6.5 L101.086,20 Z" id="path-1"></path>
        <linearGradient x1="50%" y1="0%" x2="50%" y2="100%" id="linearGradient-2">
            <stop stop-color="#96DA1E" offset="0%"></stop>
            <stop stop-color="#80DB2F" offset="49.8509754%"></stop>
            <stop stop-color="#5DB30D" offset="100%"></stop>
        </linearGradient>
        <linearGradient x1="50%" y1="-2.48949813e-15%" x2="50%" y2="100%" id="linearGradient-3">
            <stop stop-color="#96DA1F" offset="0%"></stop>
            <stop stop-color="#428207" offset="100%"></stop>
        </linearGradient>
    </defs>
    <g id="Page-1" stroke="none" stroke-width="1" fill="none" fill-rule="evenodd">
        <g id="Desktop" transform="translate(-122.000000, -110.000000)">
            <g id="logo" transform="translate(123.000000, 111.000000)">
                <g id="haxcan">
                    <use fill="#FFFFFF" xlink:href="#path-1"></use>
                    <use fill="#000000" xlink:href="#path-1"></use>
                </g>
                <g id="Group" fill="url(#linearGradient-2)" stroke="url(#linearGradient-3)">
                    <g id="black-horse-head-in-a-shield-svgrepo-com">
                        <path d="M22.6464027,2.48329178 L22.6467657,2.48362362 C23.0861717,2.88565742 23.2045887,3.81246006 23.1302768,5.3907758 C22.8500784,11.2290275 19.7080556,17.4443223 12.2580535,23.061054 L11.5748335,23.5737571 L11.2939521,23.4238428 L10.617702,23.0560513 C2.57686219,16.9941134 -0.393321263,10.3391104 -0.264211,4.44827819 C-0.235321364,3.11247648 -0.100236799,2.69885324 0.370721981,2.37597056 C3.12671863,0.515224447 7.10786542,-0.5 11.5937024,-0.5 C16.3186913,-0.5 20.6390562,0.650297681 22.6464027,2.48329178 Z" id="Shape"></path>
                    </g>
                </g>
                <g id="thin-target-svgrepo-com" opacity="0.375714" transform="translate(6.500000, 5.000000)" fill="#000000">
                    <circle id="Oval" cx="4.99726269" cy="4.98889625" r="1"></circle>
                    <path d="M4.77651214,9.99452539 L5.21801325,9.99452539 C5.400883,9.99452539 5.54913907,9.84626932 5.54913907,9.66339956 L5.54913907,9.09856512 C5.91312362,9.05014349 6.26756071,8.95356512 6.60801325,8.80958057 C7.1007947,8.60112583 7.54324503,8.30286976 7.92309051,7.92306843 C8.30290287,7.54324503 8.60118102,7.1007947 8.80959161,6.60799117 C8.9535872,6.26754967 9.0501766,5.91310155 9.0985872,5.549117 L9.66342163,5.549117 C9.84629139,5.549117 9.99454746,5.40086093 9.99454746,5.21799117 L9.99454746,4.77649007 C9.99454746,4.59362031 9.84629139,4.44536424 9.66342163,4.44536424 L9.09856512,4.44536424 C9.05015453,4.08139073 8.95356512,3.7269426 8.80956954,3.38649007 C8.60112583,2.89370861 8.30288079,2.45126932 7.92306843,2.07144592 C7.54324503,1.69162252 7.10080574,1.39335541 6.60799117,1.18493377 C6.26753863,1.04093819 5.91309051,0.944348786 5.549117,0.89593819 L5.549117,0.331125828 C5.549117,0.148245033 5.40086093,0 5.21799117,0 L4.77649007,0 C4.59362031,0 4.44536424,0.148245033 4.44536424,0.331125828 L4.44536424,0.895949227 C4.08139073,0.944359823 3.7269426,1.04094923 3.38649007,1.18494481 C2.89371965,1.39337748 2.45128035,1.69163355 2.07145695,2.07145695 C1.69163355,2.45128035 1.39336645,2.89371965 1.18494481,3.3865011 C1.04094923,3.7269426 0.944359823,4.08140177 0.895949227,4.44537528 L0.331125828,4.44537528 C0.148256071,4.44537528 0,4.59363135 0,4.7765011 L0,5.21800221 C0,5.40089404 0.148256071,5.54912804 0.331125828,5.54912804 L0.895949227,5.54912804 C0.944359823,5.91311258 1.04094923,6.26756071 1.18494481,6.60802428 C1.39337748,7.10080574 1.69163355,7.543234 2.07145695,7.92307947 C2.45128035,8.30291391 2.89371965,8.60118102 3.38651214,8.80959161 C3.72696468,8.95357616 4.0814128,9.0501766 4.44538631,9.09857616 L4.44538631,9.6634106 C4.44538631,9.84628035 4.59364238,9.99452539 4.77651214,9.99452539 Z M2.8519426,7.14258278 C2.41122517,6.70187638 2.12300221,6.14942605 2.01330022,5.54915011 L2.49175497,5.54915011 C2.67462472,5.54915011 2.82288079,5.40089404 2.82288079,5.21802428 L2.82288079,4.77652318 C2.82288079,4.59365342 2.67462472,4.44539735 2.49175497,4.44539735 L2.01328918,4.44539735 C2.12300221,3.84513245 2.41122517,3.29266004 2.85193157,2.85195364 C3.29263797,2.4112362 3.84509934,2.12301325 4.44537528,2.0133223 L4.44537528,2.49178808 C4.44537528,2.67466887 4.59363135,2.82291391 4.7765011,2.82291391 L5.21800221,2.82291391 C5.40087196,2.82291391 5.54912804,2.67466887 5.54912804,2.49178808 L5.54912804,2.0133223 C6.14940397,2.12303532 6.70186534,2.41125828 7.14257174,2.85195364 C7.58327815,3.29266004 7.8715011,3.84513245 7.98119205,4.44539735 L7.50275938,4.44539735 C7.31988962,4.44539735 7.17163355,4.59365342 7.17163355,4.77652318 L7.17163355,5.21802428 C7.17163355,5.40089404 7.31988962,5.54915011 7.50275938,5.54915011 L7.98121413,5.54915011 C7.87152318,6.14942605 7.58328918,6.70188742 7.14259382,7.14258278 C6.70189845,7.58327815 6.14942605,7.87151214 5.54915011,7.98122517 L5.54915011,7.50274834 C5.54915011,7.31987859 5.40089404,7.17162252 5.21802428,7.17162252 L4.77652318,7.17162252 C4.59365342,7.17162252 4.44539735,7.31987859 4.44539735,7.50274834 L4.44539735,7.98122517 C3.84511038,7.87151214 3.29263797,7.58330022 2.8519426,7.14258278 Z" id="Shape" fill-rule="nonzero"></path>
                </g>
            </g>
        </g>
    </g>
</svg>