<?xml version="1.0" encoding="UTF-8"?>
<svg width="18px" height="19px" viewBox="0 0 18 19" version="1.1" xmlns="http://www.w3.org/2000/svg" xmlns:xlink="http://www.w3.org/1999/xlink">
    <!-- Generator: Sketch 52.5 (67469) - http://www.bohemiancoding.com/sketch -->
    <title>bug</title>
    <desc>Created with Sketch.</desc>
    <g id="Page-1" stroke="none" stroke-width="1" fill="none" fill-rule="evenodd">
        <g id="Desktop" transform="translate(-782.000000, -119.000000)" fill="#000000" fill-rule="nonzero">
            <g id="bug" transform="translate(782.000000, 119.000000)">
                <path d="M14.1147458,10.4270161 C14.119322,10.5572581 14.1223729,10.6890323 14.1223729,10.8223387 C14.1223729,11.1870161 14.1040678,11.5440323 14.0659322,11.8933871 L16.3418644,13.0533065 C16.5828814,13.1758871 16.7415254,13.3995968 16.7888136,13.6478226 L17.7589831,17.9504032 C17.8611864,18.4054839 17.5759322,18.8575 17.1228814,18.9601613 C16.6698305,19.0628226 16.2198305,18.7762903 16.1176271,18.3212097 L15.2298305,14.3833065 L13.7227119,13.6156452 C12.9630508,16.1484677 11.2027119,17.9228226 9.15254237,17.9228226 C7.09016949,17.9228226 5.32220339,16.1270161 4.57016949,13.5696774 L2.92271186,14.3204839 L2.16762712,18.2951613 C2.08067797,18.7548387 1.63830508,19.0551613 1.18220339,18.9678226 C0.724576271,18.8804839 0.42559322,18.436129 0.512542373,17.9779839 L1.34694915,13.5895968 C1.39271186,13.3214516 1.56661017,13.0808871 1.83050847,12.961371 L4.23610169,11.8642742 C4.20101695,11.5210484 4.18271186,11.1701613 4.18271186,10.823871 L4.18271186,10.8223387 C4.18271186,10.6890323 4.18576271,10.5557258 4.19033898,10.4224194 L1.6520339,9.54137097 C1.38661017,9.44943548 1.1959322,9.23645161 1.12118644,8.98362903 L1.11813559,8.98362903 L0.187627119,5.88693548 C0.0549152542,5.43951613 0.308135593,4.96758065 0.755084746,4.83427419 C1.20050847,4.70096774 1.67033898,4.95532258 1.80305085,5.40427419 L2.60847458,8.08572581 L4.64186441,8.79056452 L13.6754237,8.79056452 L15.5379661,8.14548387 L16.3433898,5.46403226 C16.4761017,5.0166129 16.9459322,4.76072581 17.3913559,4.89403226 C17.8367797,5.02733871 18.0915254,5.49927419 17.9588136,5.94669355 L17.0283051,9.0433871 L17.0252542,9.0433871 C16.9505085,9.29467742 16.7598305,9.50766129 16.4944068,9.59959677 L14.1147458,10.4270161 Z M9.10067797,4.06814516 C9.41644068,4.06814516 9.72457627,4.12790323 10.0205085,4.23822581 C10.1288136,3.99766129 10.2264407,3.77241935 10.3164407,3.56709677 C11.2591525,1.41427419 11.3811864,1.13387097 14.6288136,0.176209677 C14.9323729,0.0873387097 15.2511864,0.262016129 15.3411864,0.566935484 C15.4311864,0.871854839 15.2557627,1.19209677 14.9522034,1.2825 C12.2171186,2.08846774 12.1194915,2.31217742 11.3674576,4.03290323 C11.2622034,4.27193548 11.1462712,4.53701613 11.0089831,4.84040323 C11.8647458,5.58201613 12.5374576,6.80782258 12.8822034,8.28951613 L5.31915254,8.28951613 C5.66542373,6.80782258 6.33661017,5.58201613 7.19237288,4.84040323 C7.05355932,4.53701613 6.93762712,4.27193548 6.83389831,4.03290323 C6.08186441,2.31217742 5.98271186,2.08846774 3.24915254,1.2825 C2.94559322,1.19362903 2.77169492,0.871854839 2.86016949,0.566935484 C2.95016949,0.262016129 3.26745763,0.0873387097 3.57254237,0.176209677 C6.81864407,1.13387097 6.94067797,1.41427419 7.88338983,3.56709677 C7.97338983,3.77241935 8.07254237,3.99766129 8.18084746,4.23822581 C8.47525424,4.12790323 8.78338983,4.06814516 9.10067797,4.06814516 Z M10.5238983,5.76129032 C10.9464407,5.76129032 11.289661,6.10604839 11.289661,6.53048387 C11.289661,6.95491935 10.9464407,7.29967742 10.5238983,7.29967742 C10.1013559,7.29967742 9.75813559,6.95491935 9.75813559,6.53048387 C9.75813559,6.10604839 10.1013559,5.76129032 10.5238983,5.76129032 Z M7.6759322,5.76129032 C8.09847458,5.76129032 8.44169492,6.10604839 8.44169492,6.53048387 C8.44169492,6.95491935 8.09847458,7.29967742 7.6759322,7.29967742 C7.25338983,7.29967742 6.91016949,6.95491935 6.91016949,6.53048387 C6.91016949,6.10604839 7.25338983,5.76129032 7.6759322,5.76129032 Z" id="Shape"></path>
            </g>
        </g>
    </g>
</svg>