<?xml version="1.0" encoding="UTF-8"?>
<svg width="20px" height="20px" viewBox="0 0 20 20" version="1.1" xmlns="http://www.w3.org/2000/svg" xmlns:xlink="http://www.w3.org/1999/xlink">
    <!-- Generator: Sketch 52.5 (67469) - http://www.bohemiancoding.com/sketch -->
    <title>tool</title>
    <desc>Created with Sketch.</desc>
    <g id="Page-1" stroke="none" stroke-width="1" fill="none" fill-rule="evenodd" stroke-linecap="round" stroke-linejoin="round">
        <g id="Desktop" transform="translate(-817.000000, -119.000000)" stroke="#000000" stroke-width="2">
            <g id="tool" transform="translate(818.000000, 120.000000)">
                <path d="M10.8857143,4.54285714 C10.5590204,4.87615158 10.5590204,5.40956271 10.8857143,5.74285714 L12.2571429,7.11428571 C12.5904373,7.44097961 13.1238484,7.44097961 13.4571429,7.11428571 L16.6885714,3.88285714 C17.5710874,5.83308298 17.1533078,8.12602669 15.6396672,9.63966723 C14.1260267,11.1533078 11.833083,11.5710874 9.88285714,10.6885714 L3.96,16.6114286 C3.24991961,17.321509 2.09865182,17.321509 1.38857143,16.6114286 C0.678491036,15.9013482 0.678491036,14.7500804 1.38857143,14.04 L7.31142857,8.11714286 C6.42891255,6.16691702 6.84669224,3.87397331 8.36033277,2.36033277 C9.87397331,0.846692236 12.166917,0.428912554 14.1171429,1.31142857 L10.8942857,4.53428571 L10.8857143,4.54285714 Z" id="Path"></path>
            </g>
        </g>
    </g>
</svg>